<?xml version="1.0" encoding="UTF-8"?>
<!DOCTYPE svg PUBLIC "-//W3C//DTD SVG 1.1//EN" "http://www.w3.org/Graphics/SVG/1.1/DTD/svg11.dtd">
<!-- Creator: CorelDRAW X7 -->
<svg xmlns="http://www.w3.org/2000/svg" xml:space="preserve" width="210mm" height="297mm" version="1.1" style="shape-rendering:geometricPrecision; text-rendering:geometricPrecision; image-rendering:optimizeQuality; fill-rule:evenodd; clip-rule:evenodd"
viewBox="0 0 21000 29700"
 xmlns:xlink="http://www.w3.org/1999/xlink"
 aria-hidden="true"
 focusable="false"
 data-prefix="fas"
 data-icon="align-justify"
 role="img">
 <defs>
  <style type="text/css">
   <![CDATA[
    .fil0 {fill:#FEFEFE}
   ]]>
  </style>
 </defs>
 <g id="Слой_x0020_1">
  <metadata id="CorelCorpID_0Corel-Layer"/>
  <path class="fil0" d="M0 6788l0 -1875c0,-415 336,-750 750,-750l19500 0c414,0 750,335 750,750l0 1875c0,414 -336,750 -750,750l-19500 0c-414,0 -750,-336 -750,-750zm750 6750l19500 0c414,0 750,-336 750,-750l0 -1875c0,-415 -336,-750 -750,-750l-19500 0c-414,0 -750,335 -750,750l0 1875c0,414 336,750 750,750zm0 12000l19500 0c414,0 750,-336 750,-750l0 -1875c0,-415 -336,-750 -750,-750l-19500 0c-414,0 -750,335 -750,750l0 1875c0,414 336,750 750,750zm0 -6000l19500 0c414,0 750,-336 750,-750l0 -1875c0,-415 -336,-750 -750,-750l-19500 0c-414,0 -750,335 -750,750l0 1875c0,414 336,750 750,750z"/>
 </g>
</svg>
