<?xml version="1.0" encoding="UTF-8"?>
<!DOCTYPE svg PUBLIC "-//W3C//DTD SVG 1.1//EN" "http://www.w3.org/Graphics/SVG/1.1/DTD/svg11.dtd">
<!-- Creator: CorelDRAW X7 -->
<svg xmlns="http://www.w3.org/2000/svg" xml:space="preserve" width="210mm" height="297mm" version="1.1" style="shape-rendering:geometricPrecision; text-rendering:geometricPrecision; image-rendering:optimizeQuality; fill-rule:evenodd; clip-rule:evenodd"
viewBox="0 0 21000 29700"
 xmlns:xlink="http://www.w3.org/1999/xlink"
 aria-hidden="true"
 focusable="false"
 data-prefix="fas"
 data-icon="folder-open"
 role="img">
 <defs>
  <style type="text/css">
   <![CDATA[
    .fil0 {fill:#FEFEFE}
   ]]>
  </style>
 </defs>
 <g id="Слой_x0020_1">
  <metadata id="CorelCorpID_0Corel-Layer"/>
  <path class="fil0" d="M20879 16166l-2640 4526c-418,717 -1186,1158 -2015,1158 0,0 0,0 0,0l-14582 0c-676,0 -1097,-733 -756,-1316l2640 -4526c418,-717 1186,-1158 2016,-1158 0,0 0,0 0,0l14582 0c675,0 1096,733 755,1316zm-15337 -2483l11958 0 0 -1750c0,-966 -783,-1750 -1750,-1750l-5833 0 -2334 -2333 -5833 0c-967,0 -1750,783 -1750,1750l0 10137 2518 -4317c625,-1071 1784,-1737 3024,-1737z"/>
 </g>
</svg>
