<?xml version="1.0" encoding="UTF-8"?>
<!DOCTYPE svg PUBLIC "-//W3C//DTD SVG 1.1//EN" "http://www.w3.org/Graphics/SVG/1.1/DTD/svg11.dtd">
<!-- Creator: CorelDRAW X7 -->
<svg xmlns="http://www.w3.org/2000/svg" xml:space="preserve" width="210mm" height="297mm" version="1.1" style="shape-rendering:geometricPrecision; text-rendering:geometricPrecision; image-rendering:optimizeQuality; fill-rule:evenodd; clip-rule:evenodd"
viewBox="0 0 21000 29700"
 xmlns:xlink="http://www.w3.org/1999/xlink"
 aria-hidden="true"
 focusable="false"
 data-prefix="far"
 data-icon="address-card"
 role="img">
 <defs>
  <style type="text/css">
   <![CDATA[
    .fil0 {fill:#FEFEFE}
   ]]>
  </style>
 </defs>
 <g id="Слой_x0020_1">
  <metadata id="CorelCorpID_0Corel-Layer"/>
  <path class="fil0" d="M19250 6683l-17500 0c-966,0 -1750,784 -1750,1750l0 12834c0,966 784,1750 1750,1750l17500 0c966,0 1750,-784 1750,-1750l0 -12834c0,-966 -784,-1750 -1750,-1750zm0 14584l-17500 0 0 -12834 17500 0 0 12834 0 0zm-11667 -6417c1287,0 2334,-1046 2334,-2333 0,-1287 -1047,-2334 -2334,-2334 -1287,0 -2333,1047 -2333,2334 0,1287 1046,2333 2333,2333zm-3266 4667l6533 0c452,0 817,-314 817,-700l0 -700c0,-1160 -1098,-2100 -2450,-2100 -394,0 -682,291 -1634,291 -980,0 -1217,-291 -1633,-291 -1353,0 -2450,940 -2450,2100l0 700c0,386 365,700 817,700l0 0zm8808 -2334l4083 0c161,0 292,-131 292,-291l0 -584c0,-160 -131,-291 -292,-291l-4083 0c-160,0 -292,131 -292,291l0 584c0,160 132,291 292,291l0 0zm0 -2333l4083 0c161,0 292,-131 292,-292l0 -583c0,-160 -131,-292 -292,-292l-4083 0c-160,0 -292,132 -292,292l0 583c0,161 132,292 292,292zm0 -2333l4083 0c161,0 292,-132 292,-292l0 -583c0,-161 -131,-292 -292,-292l-4083 0c-160,0 -292,131 -292,292l0 583c0,160 132,292 292,292z"/>
 </g>
</svg>
