<?xml version="1.0" encoding="utf-8"?>
<!-- Generator: Adobe Illustrator 21.0.0, SVG Export Plug-In . SVG Version: 6.00 Build 0)  -->
<svg version="1.1" id="Слой_1" xmlns="http://www.w3.org/2000/svg" xmlns:xlink="http://www.w3.org/1999/xlink" x="0px" y="0px"
	 viewBox="0 0 48 48" style="enable-background:new 0 0 48 48;" xml:space="preserve">
<style type="text/css">
	.st0{fill:#FFFFFF;}
</style>
<path class="st0" d="M18.9,38.6h1.7V26.1h-1.7c-1,0-1.7-0.8-1.7-1.7v-4.1c0-1,0.8-1.7,1.7-1.7h9.7c1,0,1.7,0.8,1.7,1.7v18.4h1.7
	c1,0,1.7,0.8,1.7,1.7v4.1c0,1-0.8,1.7-1.7,1.7H18.9c-1,0-1.7-0.8-1.7-1.7v-4.1C17.2,39.4,18,38.6,18.9,38.6z M25.5,1.8
	c-3.5,0-6.2,2.8-6.2,6.2s2.8,6.2,6.2,6.2s6.2-2.8,6.2-6.2S29,1.8,25.5,1.8z"/>
</svg>
