<?xml version="1.0" encoding="utf-8"?>
<!-- Generator: Adobe Illustrator 21.0.0, SVG Export Plug-In . SVG Version: 6.00 Build 0)  -->
<svg version="1.1" id="Слой_1" xmlns="http://www.w3.org/2000/svg" xmlns:xlink="http://www.w3.org/1999/xlink" x="0px" y="0px"
	 viewBox="0 0 48 48" style="enable-background:new 0 0 48 48;" xml:space="preserve">
<style type="text/css">
	.st0{display:none;fill:none;stroke:#000000;stroke-width:2;stroke-linecap:round;stroke-miterlimit:10;}
	.st1{fill:#FFFFFF;}
</style>
<path class="st0" d="M9,19.3L4.9,23L1,19.3 M28.7,9L25,4.9L28.7,1 M39,28.7l4.1-3.7l3.9,3.7 M19,39l3.7,4.1L19,47 M21,5.3
	C12.9,6.5,6.5,12.9,5.3,21 M42.7,21C41.5,12.9,35.1,6.5,27,5.3 M27,42.7c8.1-1.3,14.5-7.7,15.7-15.7 M5.3,27
	c1.3,8.1,7.7,14.5,15.7,15.7 M27,18.3c0,0-0.9-1.9-3.3-2c-3.7,0-5.3,5.2-0.9,6.6c6.7,2.3,4.3,7.7,1,7.7c-2.8,0-3.9-1.9-4-2.1
	 M23.6,14l0.1,19.1"/>
<path class="st1" d="M31.3,16.1c-1.2-7.3-4-12.5-7.3-12.5s-6.1,5.2-7.3,12.5H31.3z M16.1,24c0,1.8,0.1,3.6,0.3,5.3h15.2
	c0.2-1.7,0.3-3.4,0.3-5.3s-0.1-3.6-0.3-5.3H16.4C16.2,20.4,16.1,22.2,16.1,24z M42.8,16.1c-2.3-5.6-7.1-9.9-13-11.6
	c2,2.8,3.4,7,4.1,11.6H42.8z M18.2,4.5c-5.9,1.7-10.6,6.1-13,11.6h8.9C14.8,11.4,16.2,7.3,18.2,4.5L18.2,4.5z M43.7,18.7h-9.4
	c0.2,1.7,0.3,3.5,0.3,5.3s-0.1,3.5-0.3,5.3h9.4c0.5-1.7,0.7-3.4,0.7-5.3S44.1,20.4,43.7,18.7L43.7,18.7z M13.5,24
	c0-1.8,0.1-3.5,0.3-5.3H4.3c-0.4,1.7-0.7,3.4-0.7,5.3c0,1.8,0.3,3.6,0.7,5.3h9.4C13.6,27.5,13.5,25.8,13.5,24z M16.7,31.9
	c1.2,7.3,4,12.5,7.3,12.5s6.1-5.2,7.3-12.5H16.7z M29.8,43.5c5.9-1.7,10.6-6.1,13-11.6h-8.9C33.2,36.6,31.8,40.7,29.8,43.5z
	 M5.2,31.9c2.3,5.6,7.1,9.9,13,11.6c-2-2.8-3.4-7-4.1-11.6C14.1,31.9,5.2,31.9,5.2,31.9z"/>
</svg>
