<?xml version="1.0" encoding="utf-8"?>
<!-- Generator: Adobe Illustrator 21.0.0, SVG Export Plug-In . SVG Version: 6.00 Build 0)  -->
<svg version="1.1" id="Слой_1" xmlns="http://www.w3.org/2000/svg" xmlns:xlink="http://www.w3.org/1999/xlink" x="0px" y="0px"
	 viewBox="0 0 48 48" style="enable-background:new 0 0 48 48;" xml:space="preserve">
<style type="text/css">
	.st0{display:none;fill:none;stroke:#0F0F0F;stroke-width:2;stroke-linecap:round;stroke-linejoin:round;stroke-miterlimit:10;}
</style>
<path class="st0" d="M39,17.2V8c0-0.6-0.4-1-1-1h-5c-0.6,0-1,0.4-1,1v4.8l-7.3-7.2c-0.4-0.4-1-0.4-1.4,0L3,23.2
	C2.3,23.9,2.7,25,3.7,25H8v17c0,1.1,0.9,2,2,2h28c1.1,0,2-0.9,2-2V25h4.5c0.9,0,1.3-1.1,0.7-1.7L39,17.2z"/>
<path d="M39,28.2V39c0,1-0.8,1.8-1.8,1.8h-8.7c-0.5,0-0.9-0.4-0.9-0.9v-8.4c0-0.5-0.4-0.9-0.9-0.9h-5.4c-0.5,0-0.9,0.4-0.9,0.9v8.4
	c0,0.5-0.4,0.9-0.9,0.9h-8.7C9.8,40.8,9,40,9,39V28.2c0-0.3,0.1-0.5,0.3-0.7l14.1-11.6c0.3-0.3,0.8-0.3,1.1,0l14.1,11.6
	C38.9,27.7,39,28,39,28.2L39,28.2z M45.2,23.7L39,18.5V8.1c0-0.5-0.4-0.9-0.9-0.9h-4.2c-0.5,0-0.9,0.4-0.9,0.9v5.4L26.3,8
	C25,7,23,7,21.7,8l-19,15.6c-0.4,0.3-0.4,0.9-0.1,1.3l1.9,2.3c0.3,0.4,0.9,0.4,1.3,0.1l17.6-14.5c0.3-0.3,0.8-0.3,1.1,0l17.6,14.5
	c0.4,0.3,1,0.3,1.3-0.1l1.9-2.3C45.7,24.5,45.6,24,45.2,23.7z"/>
</svg>
