<?xml version="1.0" encoding="utf-8"?>
<!-- Generator: Adobe Illustrator 21.0.0, SVG Export Plug-In . SVG Version: 6.00 Build 0)  -->
<svg version="1.1" id="Слой_1" xmlns="http://www.w3.org/2000/svg" xmlns:xlink="http://www.w3.org/1999/xlink" x="0px" y="0px"
	 viewBox="0 0 440.8 145.7" style="enable-background:new 0 0 440.8 145.7;" xml:space="preserve">
<style type="text/css">
	.st0{fill:url(#SVGID_1_);}
	.st1{fill:url(#SVGID_2_);}
	.st2{fill:url(#SVGID_3_);}
	.st3{fill:url(#SVGID_4_);}
	.st4{enable-background:new    ;}
	.st5{fill:#4D4D4D;}
</style>
<g>
	
		<linearGradient id="SVGID_1_" gradientUnits="userSpaceOnUse" x1="27.4" y1="38.1468" x2="101.7" y2="38.1468" gradientTransform="matrix(1 0 0 -1 0 148)">
		<stop  offset="0" style="stop-color:#6993E2"/>
		<stop  offset="1" style="stop-color:#054BAC"/>
	</linearGradient>
	<path class="st0" d="M101.7,117.7V102c0-1.2-1-2.2-2.2-2.2H27.4c3.7,7.7,8.8,14.5,15.2,20.1h56.9
		C100.7,120,101.7,118.9,101.7,117.7z"/>
	
		<linearGradient id="SVGID_2_" gradientUnits="userSpaceOnUse" x1="43.9" y1="71.85" x2="128.1" y2="71.85" gradientTransform="matrix(1 0 0 -1 0 148)">
		<stop  offset="0" style="stop-color:#6993E2"/>
		<stop  offset="1" style="stop-color:#054BAC"/>
	</linearGradient>
	<path class="st1" d="M125.8,66.1H46.1c-1.2,0-2.2,1-2.2,2.2V84c0,1.2,1,2.2,2.2,2.2h79.8c1.2,0,2.2-1,2.2-2.2V68.3
		C128,67.1,127.1,66.1,125.8,66.1z"/>
	
		<linearGradient id="SVGID_3_" gradientUnits="userSpaceOnUse" x1="72.1" y1="105.65" x2="143.2" y2="105.65" gradientTransform="matrix(1 0 0 -1 0 148)">
		<stop  offset="0" style="stop-color:#6993E2"/>
		<stop  offset="1" style="stop-color:#054BAC"/>
	</linearGradient>
	<path class="st2" d="M72.1,34.5v15.7c0,1.2,1,2.2,2.2,2.2h68.9c-2.5-7.4-6.5-14.2-11.4-20.1H74.3C73.1,32.4,72.1,33.3,72.1,34.5z"
		/>
	
		<linearGradient id="SVGID_4_" gradientUnits="userSpaceOnUse" x1="21.3" y1="75.15" x2="146.7" y2="75.15" gradientTransform="matrix(1 0 0 -1 0 148)">
		<stop  offset="0" style="stop-color:#6993E2"/>
		<stop  offset="1" style="stop-color:#054BAC"/>
	</linearGradient>
	<path class="st3" d="M74.3,56.9c-3.7,0-6.7-3.1-6.7-6.7V34.5c0-3.7,3.1-6.7,6.7-6.7h53.2C116.2,16.9,100.9,10.2,84,10.2
		c-34.6,0-62.7,28.1-62.7,62.7c0,7.9,1.5,15.4,4.1,22.4h74.1c3.7,0,6.7,3.1,6.7,6.7v15.7c0,3.7-3.1,6.7-6.7,6.7H48.4
		c10.1,7,22.4,11.1,35.6,11.1c34.6,0,62.7-28.1,62.7-62.7c0-5.5-0.7-10.9-2-16L74.3,56.9L74.3,56.9z M125.8,90.7H46.1
		c-3.7,0-6.7-3.1-6.7-6.7V68.3c0-3.7,3.1-6.7,6.7-6.7h79.8c3.7,0,6.7,3.1,6.7,6.7V84C132.6,87.6,129.6,90.7,125.8,90.7z"/>
</g>
<g class="st4">
	<path class="st5" d="M190.9,77h-12.6v11.7h14v3.5h-18.2V59.8h17.5v3.5h-13.3v10.2h12.6V77z"/>
	<path class="st5" d="M197.8,59.8h4.2v28.9h13.8v3.5h-18V59.8z"/>
	<path class="st5" d="M220.4,59.8h4.2v28.9h13.8v3.5h-18V59.8z"/>
	<path class="st5" d="M247.3,59.8v32.4h-4.2V59.8H247.3z"/>
	<path class="st5" d="M282.2,75.7c0,11.1-6.8,17-15,17c-8.5,0-14.5-6.6-14.5-16.4c0-10.3,6.4-17,15-17
		C276.5,59.3,282.2,66.1,282.2,75.7z M257.1,76.2c0,6.9,3.7,13.1,10.3,13.1c6.6,0,10.4-6.1,10.4-13.4c0-6.4-3.4-13.2-10.3-13.2
		C260.5,62.7,257.1,69.1,257.1,76.2z"/>
	<path class="st5" d="M292.6,63.4h-9.8v-3.6h24v3.6h-9.9v28.8h-4.2V63.4z"/>
	<path class="st5" d="M343.1,91.1c-1.5,0.8-4.6,1.5-8.5,1.5c-9.1,0-16-5.8-16-16.4c0-10.1,6.9-17,16.9-17c4,0,6.6,0.9,7.7,1.4
		l-1,3.4c-1.6-0.8-3.8-1.3-6.5-1.3c-7.6,0-12.6,4.8-12.6,13.3c0,7.9,4.6,13,12.4,13c2.5,0,5.1-0.5,6.8-1.3L343.1,91.1z"/>
	<path class="st5" d="M374.9,75.7c0,11.1-6.8,17-15,17c-8.5,0-14.5-6.6-14.5-16.4c0-10.3,6.4-17,15-17
		C369.2,59.3,374.9,66.1,374.9,75.7z M349.8,76.2c0,6.9,3.7,13.1,10.3,13.1c6.6,0,10.4-6.1,10.4-13.4c0-6.4-3.4-13.2-10.3-13.2
		C353.3,62.7,349.8,69.1,349.8,76.2z"/>
	<path class="st5" d="M384.5,59.8v32.4h-4.2V59.8H384.5z"/>
	<path class="st5" d="M391.8,92.2V59.8h4.6l10.4,16.4c2.4,3.8,4.3,7.2,5.8,10.5l0.1,0c-0.4-4.3-0.5-8.3-0.5-13.3V59.8h3.9v32.4h-4.2
		l-10.3-16.4c-2.3-3.6-4.4-7.3-6-10.8l-0.1,0c0.2,4.1,0.3,8,0.3,13.3v13.8H391.8z"/>
</g>
</svg>
