<?xml version="1.0" encoding="utf-8"?>
<!-- Generator: Adobe Illustrator 21.0.0, SVG Export Plug-In . SVG Version: 6.00 Build 0)  -->
<svg version="1.1" id="Слой_1" xmlns="http://www.w3.org/2000/svg" xmlns:xlink="http://www.w3.org/1999/xlink" x="0px" y="0px"
	 viewBox="0 0 48 48" style="enable-background:new 0 0 48 48;" xml:space="preserve">
<style type="text/css">
	.st0{display:none;fill:none;stroke:#000000;stroke-width:2;stroke-linecap:round;stroke-linejoin:round;stroke-miterlimit:10;}
	.st1{fill:#FFFFFF;}
</style>
<path class="st0" d="M24,3L3,11.1l21,8.1l21-8.1L24,3z M13.5,15.8L3,19.9l10.5,4.1L24,28l10.5-4.1L45,19.9l-10.5-4.1 M13,24L3,27.9
	l10.5,4.1L24,36l10.5-4.1L45,27.9L35,24 M13,32L3,35.9l10.5,4.1L24,44l10.5-4.1L45,35.9L35,32"/>
<path class="st1" d="M39,22c0.3-0.7,0.4-1.5,0.4-2.4c0-3.6-3-6.6-6.6-6.6c-1.4,0-2.6,0.4-3.7,1.1c-1.9-3.3-5.5-5.5-9.5-5.5
	c-6.1,0-11,4.9-11,11c0,0.2,0,0.4,0,0.6c-3.8,1.4-6.6,5-6.6,9.3c0,5.5,4.4,9.9,9.9,9.9h25.3c4.9,0,8.8-3.9,8.8-8.8
	C46,26.3,43,22.8,39,22z"/>
</svg>
