<?xml version="1.0" encoding="utf-8"?>
<!-- Generator: Adobe Illustrator 21.0.0, SVG Export Plug-In . SVG Version: 6.00 Build 0)  -->
<svg version="1.1" id="Слой_1" xmlns="http://www.w3.org/2000/svg" xmlns:xlink="http://www.w3.org/1999/xlink" x="0px" y="0px"
	 viewBox="0 0 48 48" style="enable-background:new 0 0 48 48;" xml:space="preserve">
<style type="text/css">
	.st0{display:none;fill:none;stroke:#000000;stroke-width:2;stroke-linecap:round;stroke-miterlimit:10;}
</style>
<path class="st0" d="M9,19.3L4.9,23L1,19.3 M28.7,9L25,4.9L28.7,1 M39,28.7l4.1-3.7l3.9,3.7 M19,39l3.7,4.1L19,47 M21,5.3
	C12.9,6.5,6.5,12.9,5.3,21 M42.7,21C41.5,12.9,35.1,6.5,27,5.3 M27,42.7C35.1,41.4,41.5,35,42.7,27 M5.3,27
	C6.6,35.1,13,41.5,21,42.7 M27,18.3c0,0-0.9-1.9-3.3-2c-3.7,0-5.3,5.2-0.9,6.6c6.7,2.3,4.3,7.7,1,7.7c-2.8,0-3.9-1.9-4-2.1 M23.6,14
	l0.1,19.1"/>
<path d="M44.1,32.3c0.8,0.8,0.8,2,0,2.7l-6.5,6.4c-1.2,1.2-3.3,0.4-3.3-1.4v-3.2h-4.7c-0.3,0-0.5-0.1-0.7-0.3l-5.7-6.1l4.3-4.6
	l4.3,4.6h2.6v-3.2c0-1.7,2.1-2.6,3.3-1.4L44.1,32.3z M4.3,17.5h6.8l4.3,4.6l4.3-4.6L14,11.4c-0.2-0.2-0.4-0.3-0.7-0.3H4.3
	c-0.5,0-1,0.4-1,1v4.5C3.4,17.1,3.8,17.5,4.3,17.5z M34.3,17.5v3.2c0,1.7,2.1,2.6,3.3,1.4l6.5-6.4c0.8-0.8,0.8-2,0-2.7l-6.5-6.4
	c-1.2-1.2-3.3-0.4-3.3,1.4v3.2h-4.7c-0.3,0-0.5,0.1-0.7,0.3l-17.8,19H4.3c-0.5,0-1,0.4-1,1v4.5c0,0.5,0.4,1,1,1h8.9
	c0.3,0,0.5-0.1,0.7-0.3l17.8-19H34.3z"/>
</svg>
