<?xml version="1.0" encoding="utf-8"?>
<!-- Generator: Adobe Illustrator 21.0.0, SVG Export Plug-In . SVG Version: 6.00 Build 0)  -->
<svg version="1.1" id="Слой_1" xmlns="http://www.w3.org/2000/svg" xmlns:xlink="http://www.w3.org/1999/xlink" x="0px" y="0px"
	 viewBox="0 0 48 48" style="enable-background:new 0 0 48 48;" xml:space="preserve">
<style type="text/css">
	.st0{display:none;fill:none;stroke:#000000;stroke-width:2;stroke-linecap:round;stroke-linejoin:round;stroke-miterlimit:10;}
	.st1{display:none;stroke:#000000;stroke-miterlimit:10;}
	.st2{display:none;stroke:#000000;stroke-width:2;stroke-linecap:round;stroke-linejoin:round;stroke-miterlimit:10;}
	.st3{fill:#FFFFFF;}
</style>
<ellipse class="st0" cx="30.5" cy="17.3" rx="1.9" ry="2"/>
<circle class="st1" cx="16.9" cy="28.3" r="2"/>
<circle class="st2" cx="42.9" cy="28.3" r="2"/>
<path class="st3" d="M45,35c0.6,0,1,0.5,1,1v3.4c0,0.6-0.5,1-1,1H3c-0.6,0-1-0.5-1-1V8.5c0-0.6,0.5-1,1-1h3.4c0.6,0,1,0.5,1,1V35H45
	z M34,15.7l-7.3,4.9l-7.3-9.8c-0.4-0.6-1.3-0.5-1.7,0.1l-7.5,12.4v8.9h33l-7.7-16.1C35.2,15.6,34.5,15.4,34,15.7z"/>
</svg>
