<?xml version="1.0" encoding="utf-8"?>
<!-- Generator: Adobe Illustrator 21.0.0, SVG Export Plug-In . SVG Version: 6.00 Build 0)  -->
<svg version="1.1" id="Слой_1" xmlns="http://www.w3.org/2000/svg" xmlns:xlink="http://www.w3.org/1999/xlink" x="0px" y="0px"
	 viewBox="0 0 48 48" style="enable-background:new 0 0 48 48;" xml:space="preserve">
<style type="text/css">
	.st0{display:none;fill:none;stroke:#000000;stroke-width:2;stroke-linecap:round;stroke-linejoin:round;stroke-miterlimit:10;}
	.st1{fill:#FFFFFF;}
</style>
<ellipse class="st0" cx="8" cy="15" rx="6" ry="2"/>
<ellipse class="st0" cx="8" cy="43" rx="6" ry="2"/>
<path class="st0" d="M2,15v28 M14,15v28"/>
<ellipse class="st0" cx="24" cy="5" rx="6" ry="2"/>
<ellipse class="st0" cx="24" cy="43" rx="6" ry="2"/>
<path class="st0" d="M18,5v38 M30,5v38"/>
<ellipse class="st0" cx="40" cy="25" rx="6" ry="2"/>
<ellipse class="st0" cx="40" cy="43" rx="6" ry="2"/>
<path class="st0" d="M34,25v18 M46,25v18"/>
<path class="st1" d="M44.2,9.3h-8V6.3c0-1-0.8-1.8-1.8-1.8H13.6c-1,0-1.8,0.8-1.8,1.8v3.1h-8c-1,0-1.8,0.8-1.8,1.8v4.3
	c0,2.7,1.7,5.5,4.7,7.7c2.4,1.7,5.3,2.8,8.4,3.2c2.4,4,5.2,5.6,5.2,5.6v5.5h-3.7c-2.7,0-4.9,1.6-4.9,4.3v0.9c0,0.5,0.4,0.9,0.9,0.9
	h22.6c0.5,0,0.9-0.4,0.9-0.9v-0.9c0-2.7-2.2-4.3-4.9-4.3h-3.7V32c0,0,2.8-1.6,5.2-5.6c3.1-0.4,6-1.5,8.4-3.2c3-2.2,4.7-5,4.7-7.7
	v-4.3C46,10.1,45.2,9.3,44.2,9.3z M9.6,19.2c-1.9-1.3-2.7-2.8-2.7-3.7v-1.2h4.9c0.1,2.5,0.4,4.7,1,6.6C11.6,20.4,10.5,19.9,9.6,19.2
	z M41.1,15.4c0,1.2-1.4,2.8-2.7,3.7c-1,0.7-2,1.2-3.2,1.6c0.5-1.9,0.9-4.1,1-6.6h4.9V15.4z"/>
</svg>
