<?xml version="1.0" encoding="utf-8"?>
<!-- Generator: Adobe Illustrator 21.0.0, SVG Export Plug-In . SVG Version: 6.00 Build 0)  -->
<svg version="1.1" id="Слой_1" xmlns="http://www.w3.org/2000/svg" xmlns:xlink="http://www.w3.org/1999/xlink" x="0px" y="0px"
	 viewBox="0 0 417.3 138.2" style="enable-background:new 0 0 417.3 138.2;" xml:space="preserve">
<style type="text/css">
	.st0{fill:#FFFFFF;}
</style>
<g>
	<path class="st0" d="M85.7,113.9V98.3c0-1.2-1-2.2-2.2-2.2H11.4c3.7,7.7,8.8,14.5,15.2,20.1h56.9C84.7,116.3,85.7,115.2,85.7,113.9
		z"/>
	<path class="st0" d="M109.8,62.3H30.1c-1.2,0-2.2,1-2.2,2.2v15.7c0,1.2,1,2.2,2.2,2.2h79.8c1.2,0,2.2-1,2.2-2.2V64.6
		C112,63.3,111.1,62.3,109.8,62.3z"/>
	<path class="st0" d="M56.1,30.7v15.7c0,1.2,1,2.2,2.2,2.2h68.9c-2.5-7.4-6.5-14.2-11.4-20.1H58.3C57.1,28.6,56.1,29.5,56.1,30.7z"
		/>
	<path class="st0" d="M58.3,53.2c-3.7,0-6.7-3.1-6.7-6.7V30.7c0-3.7,3.1-6.7,6.7-6.7h53.2C100.2,13.1,84.9,6.4,68,6.4
		C33.4,6.4,5.3,34.5,5.3,69.1c0,7.9,1.5,15.4,4.1,22.4h74.1c3.7,0,6.7,3.1,6.7,6.7v15.7c0,3.7-3.1,6.7-6.7,6.7H32.4
		c10.1,7,22.4,11.1,35.6,11.1c34.6,0,62.7-28.1,62.7-62.7c0-5.5-0.7-10.9-2-16L58.3,53.2L58.3,53.2z M109.8,86.9H30.1
		c-3.7,0-6.7-3.1-6.7-6.7V64.6c0-3.7,3.1-6.7,6.7-6.7h79.8c3.7,0,6.7,3.1,6.7,6.7v15.7C116.6,83.8,113.6,86.9,109.8,86.9z"/>
</g>
<g>
	<path class="st0" d="M174.7,69.8h8.3c1.2,0,2.2,1,2.2,2.2s-1,2.2-2.2,2.2h-8.3v8.1h11.7c1.3,0,2.3,1,2.3,2.3s-1,2.3-2.3,2.3h-14.2
		c-1.4,0-2.6-1.1-2.6-2.6V59.9c0-1.4,1.1-2.6,2.6-2.6h13.7c1.3,0,2.3,1,2.3,2.3c0,1.3-1,2.3-2.3,2.3h-11.2V69.8z"/>
	<path class="st0" d="M208.2,82.2c1.5,0,2.5,1.1,2.5,2.4c0,1.4-1,2.4-2.5,2.4h-13c-1.5,0-2.5-1.1-2.5-2.5v-25c0-1.4,1.1-2.6,2.6-2.6
		s2.6,1.1,2.6,2.6v22.7H208.2z"/>
	<path class="st0" d="M229.8,82.2c1.5,0,2.5,1.1,2.5,2.4c0,1.4-1,2.4-2.5,2.4h-13c-1.5,0-2.5-1.1-2.5-2.5v-25c0-1.4,1.1-2.6,2.6-2.6
		s2.6,1.1,2.6,2.6v22.7H229.8z"/>
	<path class="st0" d="M241,84.8c0,1.4-1.1,2.6-2.6,2.6s-2.6-1.1-2.6-2.6V59.6c0-1.4,1.1-2.6,2.6-2.6s2.6,1.1,2.6,2.6V84.8z"/>
	<path class="st0" d="M245.1,72.2c0-10.4,5.1-15.4,14-15.4s14,5,14,15.4c0,10.3-5.1,15.4-14,15.4S245.1,82.5,245.1,72.2z
		 M250.4,72.2c0,7.3,2.9,10.8,8.7,10.8s8.7-3.6,8.7-10.8c0-7.3-2.9-10.9-8.7-10.9S250.4,64.9,250.4,72.2z"/>
	<path class="st0" d="M288.2,61.9v22.9c0,1.4-1.1,2.6-2.6,2.6s-2.6-1.1-2.6-2.6V61.9h-6.7c-1.2,0-2.2-1-2.2-2.2c0-1.2,1-2.2,2.2-2.2
		h18.6c1.2,0,2.2,1,2.2,2.2c0,1.2-1,2.2-2.2,2.2H288.2z"/>
	<path class="st0" d="M309.5,72.2c0-10.4,5-15.4,13.8-15.4c5.3,0,8.8,2.1,10.6,4.8c0.4,0.5,0.5,1,0.5,1.5c0,1.3-1.1,2.3-2.4,2.3
		c-0.6,0-1.2-0.3-1.8-0.9c-1.8-2-3.7-3.1-6.9-3.1c-5.9,0-8.5,3.6-8.5,10.9c0,7.7,2.6,10.8,8.5,10.8c3.3,0,5-0.7,7.1-2.9
		c0.7-0.7,1.3-1,1.9-1c1.3,0,2.4,1.1,2.4,2.4c0,0.5-0.2,1-0.4,1.3c-2.1,2.8-6.2,4.8-11,4.8C314.5,87.6,309.5,83,309.5,72.2z"/>
	<path class="st0" d="M337.7,72.2c0-10.4,5.1-15.4,14-15.4s14,5,14,15.4c0,10.3-5.1,15.4-14,15.4S337.7,82.5,337.7,72.2z M343,72.2
		c0,7.3,2.9,10.8,8.7,10.8s8.7-3.6,8.7-10.8c0-7.3-2.9-10.9-8.7-10.9S343,64.9,343,72.2z"/>
	<path class="st0" d="M374.8,84.8c0,1.4-1.1,2.6-2.6,2.6s-2.6-1.1-2.6-2.6V59.6c0-1.4,1.1-2.6,2.6-2.6s2.6,1.1,2.6,2.6V84.8z"/>
	<path class="st0" d="M402.4,59.5v25.3c0,1.4-1.1,2.5-2.5,2.5c-0.8,0-1.6-0.4-2.1-1.1l-13-18.7v17.3c0,1.4-1.1,2.5-2.5,2.5
		s-2.5-1.1-2.5-2.5V59.5c0-1.4,1.1-2.5,2.5-2.5c0.9,0,1.6,0.4,2,1.1l13,18.9V59.5c0-1.4,1.1-2.5,2.5-2.5S402.4,58.2,402.4,59.5z"/>
</g>
</svg>
